<?xml version="1.0" encoding="UTF-8"?>
<svg version="1.1" xmlns="http://www.w3.org/2000/svg" width="512" height="512">
<path d="M0 0 C1.37273071 0.56895996 1.37273071 0.56895996 2.77319336 1.14941406 C5.93078025 2.47469861 9.05788953 3.86000266 12.1875 5.25 C56.23711342 24.42373733 101.87332185 39.91167574 147.57624817 54.60223389 C155.06940942 57.01340962 162.53956115 59.48944831 170 62 C177.17914145 151.11156308 160.04772477 253.70615785 100.61132812 323.63378906 C98.5240478 326.00735094 96.38238389 328.32491003 94.21875 330.62890625 C92.29801148 332.68152646 90.48754319 334.7800953 88.6875 336.9375 C65.23993573 363.70362905 27.60225736 388.44426523 -7 397 C-37.72983207 394.75928308 -72.71107111 368.59279259 -94.5234375 348.2890625 C-96.61682183 346.35416784 -98.75082207 344.51423094 -100.9375 342.6875 C-161.23770052 289.86354385 -183.17500373 201.18324202 -188.43579102 124.50610352 C-189.67207087 103.7494714 -189.66999625 82.72893776 -188 62 C-177.69036566 58.54012974 -167.37537642 55.10062028 -157.01953125 51.78125 C-124.20719707 41.25308319 -91.73820276 29.98407089 -59.6875 17.3125 C-58.78726105 16.95719208 -57.88702209 16.60188416 -56.95950317 16.23580933 C-47.97610794 12.68278696 -39.03820773 9.06092897 -30.203125 5.15234375 C-28.86383209 4.56762267 -27.52439985 3.9832206 -26.18481445 3.39916992 C-23.77044933 2.345694 -21.3868179 1.25716389 -19.00073242 0.13793945 C-11.53470479 -3.14482864 -7.39871346 -3.37502664 0 0 Z " fill="#E6FEFE" transform="translate(265,59)"/>
<path d="M0 0 C1.37273071 0.56895996 1.37273071 0.56895996 2.77319336 1.14941406 C5.93078025 2.47469861 9.05788953 3.86000266 12.1875 5.25 C56.23711342 24.42373733 101.87332185 39.91167574 147.57624817 54.60223389 C155.06940942 57.01340962 162.53956115 59.48944831 170 62 C177.17914145 151.11156308 160.04772477 253.70615785 100.61132812 323.63378906 C98.5240478 326.00735094 96.38238389 328.32491003 94.21875 330.62890625 C92.29801148 332.68152646 90.48754319 334.7800953 88.6875 336.9375 C65.23993573 363.70362905 27.60225736 388.44426523 -7 397 C-37.72983207 394.75928308 -72.71107111 368.59279259 -94.5234375 348.2890625 C-96.61682183 346.35416784 -98.75082207 344.51423094 -100.9375 342.6875 C-161.23770052 289.86354385 -183.17500373 201.18324202 -188.43579102 124.50610352 C-189.67207087 103.7494714 -189.66999625 82.72893776 -188 62 C-177.69036566 58.54012974 -167.37537642 55.10062028 -157.01953125 51.78125 C-124.20719707 41.25308319 -91.73820276 29.98407089 -59.6875 17.3125 C-58.78726105 16.95719208 -57.88702209 16.60188416 -56.95950317 16.23580933 C-47.97610794 12.68278696 -39.03820773 9.06092897 -30.203125 5.15234375 C-28.86383209 4.56762267 -27.52439985 3.9832206 -26.18481445 3.39916992 C-23.77044933 2.345694 -21.3868179 1.25716389 -19.00073242 0.13793945 C-11.53470479 -3.14482864 -7.39871346 -3.37502664 0 0 Z M-16.26171875 34.625 C-17.53499023 35.17752441 -17.53499023 35.17752441 -18.83398438 35.74121094 C-19.77564453 36.15661133 -20.71730469 36.57201172 -21.6875 37 C-53.20874427 50.48221667 -85.58528654 61.88132323 -118 73 C-119.8131697 73.6228298 -121.62632035 74.24571506 -123.43945312 74.86865234 C-134.2878188 78.59423442 -145.14142222 82.30429309 -156 86 C-156.21712403 104.11816543 -156.26868813 122.07548154 -154.31201172 140.11523438 C-153.99019761 143.0906299 -153.70030158 146.06824014 -153.41015625 149.046875 C-151.28033064 169.69118008 -147.22107104 190.1875127 -141 210 C-140.66871094 211.15628906 -140.33742188 212.31257812 -139.99609375 213.50390625 C-129.47295735 249.25323721 -112.19998846 282.21436843 -87.0234375 309.75390625 C-85.42588072 311.52725596 -83.91616508 313.31683982 -82.4375 315.1875 C-79.25591391 318.85856088 -75.70900044 321.87499628 -72 325 C-71.15824219 325.74121094 -70.31648438 326.48242188 -69.44921875 327.24609375 C-54.4564192 340.20667427 -28.20181384 361.93841833 -7.7265625 362.01171875 C-2.30827917 360.5407173 2.58158173 358.25731362 7.625 355.8125 C8.72295898 355.28148682 9.82091797 354.75047363 10.95214844 354.20336914 C27.10050422 346.1862814 41.62792324 336.05019524 55 324 C56.25683594 322.92298828 56.25683594 322.92298828 57.5390625 321.82421875 C62.50253571 317.5496557 66.79312485 313.00899739 71 308 C72.21623047 306.63294922 72.21623047 306.63294922 73.45703125 305.23828125 C105.18326915 269.32309371 123.45244077 220.91673402 131.60742188 174.23242188 C131.98359555 172.09328502 132.38723689 169.96106827 132.796875 167.828125 C137.86703639 140.6278252 138.4355551 113.55835307 138 86 C137.45211319 85.82033188 136.90422638 85.64066376 136.33973694 85.45555115 C95.88727487 72.17934101 55.87993949 58.12295503 16.3359375 42.33984375 C15.63445084 42.06060059 14.93296417 41.78135742 14.21022034 41.49365234 C10.71657522 40.09963242 7.23339182 38.68514653 3.76269531 37.23486328 C2.74304184 36.81364952 2.74304184 36.81364952 1.70278931 36.38392639 C-0.14782712 35.61836841 -1.99471296 34.84380977 -3.84130859 34.06860352 C-8.59547736 32.46024081 -11.71748105 32.60099643 -16.26171875 34.625 Z " fill="#2694E7" transform="translate(265,59)"/>
<path d="M0 0 C3.91626373 0.78325275 6.94418361 1.65479427 10.59375 3.1171875 C11.69066162 3.55337402 12.78757324 3.98956055 13.91772461 4.43896484 C15.09987549 4.91285645 16.28202637 5.38674805 17.5 5.875 C20.05229635 6.88817432 22.60620874 7.89724619 25.16015625 8.90625 C26.14091881 9.29422256 26.14091881 9.29422256 27.14149475 9.69003296 C50.22626259 18.81421509 73.5556449 27.15315793 96.99731445 35.30291748 C100.89737666 36.66042725 104.79413092 38.02737488 108.69116211 39.39355469 C112.12666879 40.59791784 115.56327722 41.79911212 119 43 C119.25507685 64.24931843 116.79512081 85.12138801 113 106 C112.85868652 106.8142041 112.71737305 107.6284082 112.57177734 108.46728516 C103.18393092 161.99049664 77.3525998 218.65785917 31.75537109 250.796875 C6.65584416 268 6.65584416 268 0 268 C0 238.96 0 209.92 0 180 C-27.06 180 -54.12 180 -82 180 C-82 156.36254464 -73.73189242 137.65195221 -57.66796875 120.51171875 C-45.26331276 108.60078041 -29.64999052 101.73469747 -13.14453125 97.578125 C-10.97126853 97.06854639 -10.97126853 97.06854639 -9 96 C-6.97680744 96.02299082 -4.95342543 96.0515203 -2.93115234 96.11669922 C9.07566583 96.46636554 17.97063402 94.38719124 27 86 C34.85867226 77.72292621 37.62015972 68.10396971 37.47265625 56.8515625 C37.01110545 46.3562986 32.41968103 38.36482596 25.0703125 31.08984375 C17.77308763 24.79498493 9.27317252 22.8546345 0 21 C0 14.07 0 7.14 0 0 Z " fill="#B5E0F7" transform="translate(256,122)"/>
<path d="M0 0 C0.7734375 0.61359375 1.546875 1.2271875 2.34375 1.859375 C17.65937609 14.55246238 26.15987618 32.79938091 30 52 C30 55.96 30 59.92 30 64 C-24.12 64 -78.24 64 -134 64 C-134 40.36254464 -125.73189242 21.65195221 -109.66796875 4.51171875 C-80.19242969 -23.79066453 -31.45895218 -26.63524618 0 0 Z " fill="#55D6D2" transform="translate(308,238)"/>
<path d="M0 0 C8.16556547 6.08307226 15.45627617 14.11739994 17.390625 24.421875 C18.42932298 37.46495397 16.93085674 48.4206488 8.265625 58.859375 C0.91620488 66.41807509 -7.45781182 70.48622508 -17.90454102 70.66381836 C-31.47433666 70.70951723 -39.38509311 68.35373798 -49.3671875 58.7265625 C-57.45191148 49.99181046 -59.09721212 39.96274401 -58.88671875 28.4765625 C-58.41062057 18.23926728 -52.6337782 9.91392803 -45.234375 3.171875 C-41.64732084 0.2578884 -37.84052931 -1.756013 -33.609375 -3.578125 C-32.701875 -3.990625 -31.794375 -4.403125 -30.859375 -4.828125 C-20.35200561 -7.25290255 -9.25559373 -5.59769441 0 0 Z " fill="#FCB6A1" transform="translate(276.609375,148.578125)"/>
</svg>
